<?xml version="1.0" encoding="UTF-8"?>
<svg width="124px" height="50px" viewBox="0 0 124 50" version="1.1" xmlns="http://www.w3.org/2000/svg" xmlns:xlink="http://www.w3.org/1999/xlink">
    <!-- Generator: Sketch 48.2 (47327) - http://www.bohemiancoding.com/sketch -->
    <title>GoBear_Logo_Tagline_RGB</title>
    <desc>Created with Sketch.</desc>
    <defs></defs>
    <g id="Page-1" stroke="none" stroke-width="1" fill="none" fill-rule="evenodd">
        <g id="GoBear_Logo_Tagline_RGB">
            <path d="M31.4005182,8.02041314 C26.025335,8.03993299 21.6834775,12.2640726 21.6998393,17.4556786 C21.7145879,22.7341142 26.0264872,26.9353685 31.4401551,26.9468112 C36.7330687,26.9587026 41.049577,22.6760034 41.0509597,17.4159658 C41.0528032,12.253303 36.685827,8.00089329 31.4005182,8.02041314 M31.4244847,21.9259477 C28.8425532,21.9145051 26.8136952,19.8907233 26.8436534,17.3491047 C26.8708461,14.975985 28.9605422,12.9829414 31.4058185,13.0038074 C33.9727709,13.0240004 35.9629138,15.019512 35.9271945,17.5373478 C35.8953927,19.952424 33.8619258,21.9329031 31.4244847,21.9259477 M19.1727542,10.9335819 C19.1623841,9.41596996 18.3154903,8.41484865 17.0291334,8.21718217 C15.977372,8.05361932 15.1539838,8.52590985 14.5179492,9.29032498 C9.34924683,6.69508289 4.75527997,8.5196276 2.34964064,11.3421525 C-0.475412773,14.6564878 -0.617368308,19.2631715 1.86915802,22.6461628 C4.01807907,25.5703255 8.65744404,27.9806899 14.2188287,25.4220195 C14.2280465,25.8240835 14.1441637,26.4938161 14.0757209,26.7760686 C13.2818299,29.9744066 9.73893321,31.0980318 7.08187588,29.8498835 C6.28614136,29.4774358 5.58005084,28.9295339 4.80459569,28.5059308 C4.06992971,28.1043156 3.30415334,28.1213674 2.59091896,28.5741381 C1.85302671,29.0419413 1.51196471,29.7067379 1.58962545,30.5797462 C1.66751664,31.4339078 2.14477299,32.0405936 2.80615673,32.5335258 C5.95107099,34.8745611 9.75322094,35.5252227 13.3657128,33.9977386 C17.1406699,32.3991305 18.9393111,29.2939044 19.1227471,25.3253177 C19.3386762,20.6645618 19.2096258,15.6053318 19.1727542,10.9335819 M9.68063004,21.7056203 C7.07795827,21.7246914 5.13528756,19.8685111 5.1067121,17.3356427 C5.07882797,14.806813 7.01043721,12.8786112 9.5776201,12.8667198 C12.1567862,12.8566233 14.1423202,14.7738312 14.1448551,17.2764101 C14.1487727,19.7498214 12.1945796,21.6867735 9.68063004,21.7056203" id="Fill-1" fill="#00DD55"></path>
            <path d="M115.482671,9.60376435 C115.379431,9.43212432 115.404089,9.46667669 115.348781,9.37334041 C114.812069,8.46308735 114.126719,8.04935636 113.079567,8.14044898 C111.948762,8.23961877 111.127217,8.79514911 110.852985,9.91630625 C110.734996,10.3984689 110.69605,10.9093504 110.69605,11.4054237 C110.682223,15.4628593 110.686832,19.5178269 110.690289,23.5732433 C110.690289,23.9367163 110.686832,24.3017598 110.726469,24.6620917 C110.754353,24.9272924 110.806665,25.171627 110.880178,25.3964418 C111.230227,26.4709308 112.072742,27.0731293 113.266229,27.0769435 C114.611811,27.0807577 115.582455,26.1532285 115.741463,24.6822846 C115.80161,24.1285492 115.832721,23.5692047 115.836638,23.0112063 C115.854844,20.7448849 115.854844,19.2241318 115.883419,16.9589322 C115.887797,16.6477364 115.917525,16.3455154 115.972141,16.0549613 C116.341087,14.065732 117.813646,13.3838835 119.668746,13.0064998 C119.823607,12.9741911 120.287958,12.8965605 120.549977,12.8878102 C121.787018,12.8460781 123.311427,11.8436106 123.25635,10.3802952 C123.199429,8.88713919 122.08199,8.03746496 120.356631,8.14987235 C120.356631,8.14987235 120.172504,8.16310995 120.087699,8.16557797 C118.974178,8.2400675 117.854896,8.49965902 116.751975,8.96611604 C116.421513,9.10567172 116.104418,9.2557726 115.805528,9.42202785 C115.767965,9.44199642 115.482671,9.60376435 115.482671,9.60376435 L115.482671,9.60376435 Z M84.9891935,15.401383 C83.9342058,10.5234408 79.1326059,7.43952944 74.2240785,8.13124997 C69.1353413,8.84720203 65.4608591,13.2479177 65.8316488,18.3805154 C66.2731858,24.5052598 72.7238666,28.2521728 78.8530733,26.8916171 C80.4599823,26.5344264 82.1537699,25.6519947 83.3265162,24.5418315 C84.0683261,23.8400145 84.4398071,22.6176683 83.9116219,21.7599169 C83.4912861,21.0735811 82.9536525,20.7843733 82.1867239,20.7807834 C81.6343417,20.7762961 81.1900394,21.0123292 80.6609324,21.2005723 C79.884325,21.4745232 79.1418238,21.9151782 78.3564594,22.1574935 C75.7855893,22.9499544 72.1051156,21.7175117 71.3135291,19.2541968 L72.4314289,19.2541968 C75.7952681,19.2541968 79.1586464,19.2618253 82.5211029,19.2490364 C83.8816638,19.2441004 84.8990886,18.4343633 85.0910512,17.1305722 C85.1747036,16.5687596 85.1097174,15.9620738 84.9891935,15.401383 L84.9891935,15.401383 Z M71.4333617,15.5048158 C71.8483973,13.7404012 73.4668286,12.2725985 75.6676003,12.2725985 C77.7340212,12.2725985 79.4460142,13.652001 79.6831445,15.5048158 L71.4333617,15.5048158 L71.4333617,15.5048158 Z M107.033551,10.8900549 C107.030556,9.72918497 106.611372,8.73165351 105.367878,8.32330731 C104.124846,7.91540983 103.130235,8.3491094 102.311917,9.36346831 C97.013703,6.59030395 92.155874,8.56696884 89.6704999,11.5510373 C86.7214658,15.0937772 86.7007256,19.9102432 89.628328,23.5310624 C92.0358109,26.5045857 96.9643873,28.5741381 102.259375,25.8411353 C102.616568,26.1233878 102.931129,26.4659947 103.322889,26.6643343 C105.116921,27.5727924 106.959117,26.5463178 106.997371,24.4850669 C107.082867,19.954892 107.049913,15.4222491 107.033551,10.8900549 L107.033551,10.8900549 Z M97.3056797,22.1254092 C94.663371,22.1377493 92.549478,20.185989 92.5759794,17.5994972 C92.6091638,14.5110986 95.0867027,12.9474916 97.2411545,13.0118846 C99.8998249,13.0042562 101.931909,14.9921394 101.905869,17.5786312 C101.881902,20.1689372 99.914804,22.1139665 97.3056797,22.1254092 L97.3056797,22.1254092 Z M61.6190722,12.2577903 C58.8898849,8.28628691 54.7153321,7.24522844 48.8174944,9.11262707 C48.8174944,8.51289662 48.8322431,7.93403221 48.8161118,7.35830893 C48.7727877,5.82162586 48.8704973,3.66075645 48.78431,2.08189257 C48.7144845,0.799640597 47.5173108,0.150100887 46.2698996,0.138209486 C44.6540031,0.122279497 43.6697627,1.14493995 43.6600839,2.91586117 C43.6437222,6.66636404 43.6529401,11.046438 43.6529401,14.7982871 C43.6515574,17.8783842 43.6437222,20.9578082 43.6600839,24.0385785 C43.6676887,25.5876017 44.4413003,26.6035311 45.7907997,26.8945339 C46.9338182,27.1399903 47.7625067,26.5858062 48.449931,25.8088266 C53.581301,28.395094 58.2842694,26.7668696 60.8786451,23.8137637 C63.8606331,20.4197785 64.1231126,15.9017193 61.6190722,12.2577903 L61.6190722,12.2577903 Z M53.4464893,22.1238386 C50.8060242,22.1036456 48.7979064,20.0834537 48.836852,17.4868655 C48.876489,14.9017199 50.9196347,12.9876531 53.6112591,13.0148014 C56.2054043,13.0406035 58.1720416,15.0255699 58.1598279,17.6055551 C58.1462315,20.2016947 56.121752,22.1453777 53.4464893,22.1238386 L53.4464893,22.1238386 Z" id="Fill-2" fill="#000000"></path>
            <path d="M117.708101,49.7323052 C117.9344,49.8054486 118.173604,49.8548091 118.513284,49.8548091 C119.860248,49.8548091 120.501352,49.0093978 121.017554,47.6495152 L123.257732,41.3643491 L121.8603,41.3643491 L120.929293,44.3167819 C120.77835,44.8559335 120.614963,45.4563371 120.463789,46.0073801 L120.413782,46.0073801 C120.225277,45.4442213 120.048754,44.8440421 119.872462,44.3167819 L118.803186,41.3643491 L117.330628,41.3643491 L119.758851,47.3060108 L119.646162,47.6863112 C119.444521,48.2864904 119.067048,48.7152539 118.412809,48.7152539 C118.261866,48.7152539 118.085343,48.6665665 117.972654,48.6293217 L117.708101,49.7323052 L117.708101,49.7323052 Z M112.058455,46.6937158 C112.661996,47.1716155 113.555671,47.5270114 114.399108,47.5270114 C115.959236,47.5270114 116.802212,46.6937158 116.802212,45.6647731 C116.802212,44.5371094 115.870975,44.1451419 115.028229,43.8388822 C114.360854,43.6059903 113.744868,43.4224589 113.744868,42.9450079 C113.744868,42.5649318 114.034079,42.2829037 114.650756,42.2829037 C115.141609,42.2829037 115.581763,42.4917885 116.009935,42.797375 L116.676388,41.939848 C116.173322,41.5599963 115.481519,41.217165 114.625638,41.217165 C113.24111,41.217165 112.372785,41.9647526 112.372785,43.0183756 C112.372785,44.022638 113.291809,44.4758575 114.109436,44.7702257 C114.763445,45.0150091 115.43082,45.2360096 115.43082,45.7379165 C115.43082,46.1545642 115.11649,46.4608239 114.449115,46.4608239 C113.820224,46.4608239 113.291809,46.2037004 112.737813,45.787277 L112.058455,46.6937158 L112.058455,46.6937158 Z M105.855274,45.7625967 C105.855274,46.8164441 106.597776,47.5272357 107.679956,47.5272357 C108.410013,47.5272357 109.039134,47.1718399 109.592669,46.7183961 L109.643367,46.7183961 L109.743842,47.3800516 L110.939633,47.3800516 L110.939633,43.8144263 C110.939633,42.1357196 110.171783,41.2173893 108.636312,41.2173893 C107.654607,41.2173893 106.774068,41.5846766 106.094479,42.0015487 L106.622894,42.9445592 C107.17689,42.6264081 107.755082,42.3569445 108.359315,42.3569445 C109.202521,42.3569445 109.466844,42.8958717 109.492194,43.532847 C106.949669,43.8025349 105.855274,44.4760818 105.855274,45.7625967 L105.855274,45.7625967 Z M109.492194,45.7625967 C109.02669,46.1794689 108.648526,46.4242522 108.14546,46.4242522 C107.629258,46.4242522 107.252015,46.1911359 107.252015,45.6522086 C107.252015,45.0518051 107.80578,44.6230416 109.492194,44.4150543 L109.492194,45.7625967 L109.492194,45.7625967 Z M99.5513886,44.3780339 C99.5513886,46.3627759 100.885218,47.5270114 102.59698,47.5270114 C103.376814,47.5270114 104.119545,47.2573234 104.710643,46.8774716 L104.21979,45.9954887 C103.766731,46.2770681 103.314132,46.4361436 102.785716,46.4361436 C101.791567,46.4361436 101.086859,45.8238487 100.961035,44.7581099 L104.887165,44.7581099 C104.924728,44.6111502 104.949847,44.3414622 104.949847,44.0717742 C104.949847,42.3932918 104.068847,41.217165 102.395339,41.217165 C100.947899,41.217165 99.5513886,42.4179721 99.5513886,44.3780339 L99.5513886,44.3780339 Z M100.947899,43.8023106 C101.073723,42.8346198 101.703536,42.3073596 102.432902,42.3073596 C103.276569,42.3073596 103.691605,42.8711915 103.691605,43.8023106 L100.947899,43.8023106 L100.947899,43.8023106 Z M90.6556621,44.3780339 C90.6556621,46.3627759 91.9892606,47.5270114 93.7012535,47.5270114 C94.4813176,47.5270114 95.2235884,47.2573234 95.8151466,46.8774716 L95.3242939,45.9954887 C94.871004,46.2770681 94.4181751,46.4361436 93.8897594,46.4361436 C92.8958402,46.4361436 92.190902,45.8238487 92.0650777,44.7581099 L95.9912083,44.7581099 C96.0290017,44.6111502 96.0543509,44.3414622 96.0543509,44.0717742 C96.0543509,42.3932918 95.1731204,41.217165 93.4996122,41.217165 C92.0524031,41.217165 90.6556621,42.4179721 90.6556621,44.3780339 L90.6556621,44.3780339 Z M92.0524031,43.8023106 C92.1782274,42.8346198 92.8075789,42.3073596 93.5371751,42.3073596 C94.3806122,42.3073596 94.7956478,42.8711915 94.7956478,43.8023106 L92.0524031,43.8023106 L92.0524031,43.8023106 Z M83.5841563,44.3780339 C83.5841563,46.3627759 84.5780755,47.5270114 86.12599,47.5270114 C86.7929045,47.5270114 87.4220256,47.1716155 87.8753154,46.7302875 L87.9253225,46.7302875 L88.0264889,47.3798272 L89.2215885,47.3798272 L89.2215885,38.7298429 L87.7748404,38.7298429 L87.7748404,40.9109053 L87.824617,41.8788204 C87.3468998,41.4747372 86.9067454,41.217165 86.2018072,41.217165 C84.8548427,41.217165 83.5841563,42.4179721 83.5841563,44.3780339 L83.5841563,44.3780339 Z M87.7748404,45.689229 C87.3591135,46.1545642 86.9562916,46.3627759 86.4785744,46.3627759 C85.5851302,46.3627759 85.0820637,45.6647731 85.0820637,44.3661425 C85.0820637,43.1040834 85.7231681,42.381176 86.5161373,42.381176 C86.9311729,42.381176 87.3468998,42.5157957 87.7748404,42.8830829 L87.7748404,45.689229 L87.7748404,45.689229 Z M77.1420021,45.7625967 C77.1420021,46.8164441 77.8842729,47.5272357 78.9666838,47.5272357 C79.6965104,47.5272357 80.3256315,47.1718399 80.8793964,46.7183961 L80.9298644,46.7183961 L81.0305698,47.3800516 L82.2261304,47.3800516 L82.2261304,43.8144263 C82.2261304,42.1357196 81.4585105,41.2173893 79.9230401,41.2173893 C78.9413346,41.2173893 78.0607955,41.5846766 77.3812064,42.0015487 L77.9098525,42.9445592 C78.4633869,42.6264081 79.042501,42.3569445 79.6462729,42.3569445 C80.4890187,42.3569445 80.7535722,42.8958717 80.7789214,43.532847 C78.2366268,43.8025349 77.1420021,44.4760818 77.1420021,45.7625967 L77.1420021,45.7625967 Z M80.7789214,45.7625967 C80.3131874,46.1794689 79.9354843,46.4242522 79.4321874,46.4242522 C78.9166768,46.4242522 78.5385128,46.1911359 78.5385128,45.6522086 C78.5385128,45.0518051 79.0922776,44.6230416 80.7789214,44.4150543 L80.7789214,45.7625967 L80.7789214,45.7625967 Z M66.8619787,47.3798272 L68.3091877,47.3798272 L68.3091877,43.1774511 C68.7871354,42.6755443 69.2282115,42.4298635 69.6054537,42.4298635 C70.2596936,42.4298635 70.56181,42.7978238 70.56181,43.7901948 L70.56181,47.3798272 L72.009019,47.3798272 L72.009019,43.1774511 C72.4869667,42.6755443 72.9149074,42.4298635 73.3045938,42.4298635 C73.9463895,42.4298635 74.2487363,42.7978238 74.2487363,43.7901948 L74.2487363,47.3798272 L75.7083895,47.3798272 L75.7083895,43.6059903 C75.7083895,42.0872565 75.1046176,41.217165 73.7954465,41.217165 C73.0153824,41.217165 72.3989359,41.6831732 71.8073777,42.2954682 C71.5181663,41.6210239 71.0021948,41.217165 70.0963065,41.217165 C69.3284561,41.217165 68.7242233,41.6459285 68.2087127,42.1848557 L68.1582447,42.1848557 L68.0577697,41.3643491 L66.8619787,41.3643491 L66.8619787,47.3798272 L66.8619787,47.3798272 Z M57.2993377,47.3798272 L58.7463162,47.3798272 L58.7463162,43.1774511 C59.2625182,42.6874357 59.6146416,42.4298635 60.1555014,42.4298635 C60.8348601,42.4298635 61.1247628,42.7978238 61.1247628,43.7901948 L61.1247628,47.3798272 L62.5722022,47.3798272 L62.5722022,43.6059903 C62.5722022,42.0872565 61.9930882,41.217165 60.6714729,41.217165 C59.8287272,41.217165 59.1991452,41.6459285 58.6458412,42.1729643 L58.5953732,42.1729643 L58.4948982,41.3643491 L57.2993377,41.3643491 L57.2993377,47.3798272 L57.2993377,47.3798272 Z M49.9886276,44.3780339 C49.9886276,46.3748917 51.3853687,47.5270114 52.920839,47.5270114 C54.4685231,47.5270114 55.8652641,46.3748917 55.8652641,44.3780339 C55.8652641,42.3686115 54.4685231,41.217165 52.920839,41.217165 C51.3853687,41.217165 49.9886276,42.3686115 49.9886276,44.3780339 L49.9886276,44.3780339 Z M54.3804922,44.3780339 C54.3804922,45.5788409 53.8267273,46.3748917 52.920839,46.3748917 C52.0142593,46.3748917 51.47363,45.5788409 51.47363,44.3780339 C51.47363,43.1653354 52.0142593,42.3686115 52.920839,42.3686115 C53.8267273,42.3686115 54.3804922,43.1653354 54.3804922,44.3780339 L54.3804922,44.3780339 Z M44.3516563,46.6937158 C44.9554282,47.1716155 45.8488724,47.5270114 46.6925399,47.5270114 C48.2526681,47.5270114 49.0961052,46.6937158 49.0961052,45.6647731 C49.0961052,44.5371094 48.1644068,44.1451419 47.3214306,43.8388822 C46.6542857,43.6059903 46.0383,43.4224589 46.0383,42.9450079 C46.0383,42.5649318 46.3275114,42.2829037 46.9439579,42.2829037 C47.4348107,42.2829037 47.8751955,42.4917885 48.3031361,42.797375 L48.9698201,41.939848 C48.4665232,41.5599963 47.7747204,41.217165 46.9188392,41.217165 C45.5343118,41.217165 44.6662168,41.9647526 44.6662168,43.0183756 C44.6662168,44.022638 45.5850102,44.4758575 46.4026372,44.7702257 C47.0568771,45.0150091 47.724022,45.2360096 47.724022,45.7379165 C47.724022,46.1545642 47.4096919,46.4608239 46.7423165,46.4608239 C46.1134259,46.4608239 45.5850102,46.2037004 45.0312454,45.787277 L44.3516563,46.6937158 L44.3516563,46.6937158 Z M41.5081671,39.514451 C41.5081671,39.9795618 41.8854093,40.3105018 42.4016113,40.3105018 C42.9175828,40.3105018 43.2950554,39.9795618 43.2950554,39.514451 C43.2950554,39.0365513 42.9175828,38.7056114 42.4016113,38.7056114 C41.8854093,38.7056114 41.5081671,39.0365513 41.5081671,39.514451 L41.5081671,39.514451 Z M41.6715542,47.3796029 L43.1187632,47.3796029 L43.1187632,41.3641247 L41.6715542,41.3641247 L41.6715542,47.3796029 Z M36.978495,47.3798272 L38.425704,47.3798272 L38.425704,43.704487 C38.8031767,42.7978238 39.3945045,42.4671082 39.8853572,42.4671082 C40.1499107,42.4671082 40.3132979,42.5036799 40.5271529,42.5649318 L40.7788014,41.3394445 C40.5900651,41.253961 40.3884237,41.217165 40.0738631,41.217165 C39.4198537,41.217165 38.7656138,41.6459285 38.325229,42.4298635 L38.2745306,42.4298635 L38.1740556,41.3643491 L36.978495,41.3643491 L36.978495,47.3798272 L36.978495,47.3798272 Z M30.1586377,45.7625967 C30.1586377,46.8164441 30.9011389,47.5272357 31.9833194,47.5272357 C32.7133765,47.5272357 33.3424976,47.1718399 33.896032,46.7183961 L33.9467304,46.7183961 L34.0472054,47.3800516 L35.242766,47.3800516 L35.242766,43.8144263 C35.242766,42.1357196 34.475146,41.2173893 32.9396757,41.2173893 C31.9579702,41.2173893 31.0774311,41.5846766 30.397842,42.0015487 L30.9264881,42.9445592 C31.4800225,42.6264081 32.0591366,42.3569445 32.6626781,42.3569445 C33.5058847,42.3569445 33.7702078,42.8958717 33.795557,43.532847 C31.2532624,43.8025349 30.1586377,44.4760818 30.1586377,45.7625967 L30.1586377,45.7625967 Z M33.795557,45.7625967 C33.3300534,46.1794689 32.9521199,46.4242522 32.448823,46.4242522 C31.932621,46.4242522 31.5553788,46.1911359 31.5553788,45.6522086 C31.5553788,45.0518051 32.1089132,44.6230416 33.795557,44.4150543 L33.795557,45.7625967 L33.795557,45.7625967 Z M23.5401914,49.7567611 L24.9874004,49.7567611 L24.9874004,47.8698427 L24.9498375,46.8653559 C25.4531344,47.282228 25.9937637,47.5270114 26.5353149,47.5270114 C27.9067067,47.5270114 29.1776236,46.33832 29.1776236,44.2802103 C29.1776236,42.4179721 28.283949,41.217165 26.74917,41.217165 C26.0695809,41.217165 25.402436,41.5727852 24.8869254,42.0013243 L24.8364574,42.0013243 L24.7359824,41.3643491 L23.5401914,41.3643491 L23.5401914,49.7567611 L23.5401914,49.7567611 Z M27.6804075,44.292326 C27.6804075,45.6519843 27.0512864,46.3627759 26.232968,46.3627759 C25.8679395,46.3627759 25.4402293,46.228605 24.9874004,45.8604203 L24.9874004,43.0549473 C25.4653481,42.6015035 25.8932887,42.381176 26.3465785,42.381176 C27.2778161,42.381176 27.6804075,43.0915189 27.6804075,44.292326 L27.6804075,44.292326 Z M12.9331632,47.3798272 L14.3803722,47.3798272 L14.3803722,43.1774511 C14.8583199,42.6755443 15.2991656,42.4298635 15.6764078,42.4298635 C16.3306477,42.4298635 16.6329945,42.7978238 16.6329945,43.7901948 L16.6329945,47.3798272 L18.0802036,47.3798272 L18.0802036,43.1774511 C18.5581513,42.6755443 18.9860919,42.4298635 19.3757783,42.4298635 C20.017574,42.4298635 20.3196904,42.7978238 20.3196904,43.7901948 L20.3196904,47.3798272 L21.7793436,47.3798272 L21.7793436,43.6059903 C21.7793436,42.0872565 21.1758021,41.217165 19.8664006,41.217165 C19.0865669,41.217165 18.4698899,41.6831732 17.8785622,42.2954682 C17.5893508,41.6210239 17.0731489,41.217165 16.1672606,41.217165 C15.3996406,41.217165 14.7954078,41.6459285 14.2798972,42.1848557 L14.2291988,42.1848557 L14.1287238,41.3643491 L12.9331632,41.3643491 L12.9331632,47.3798272 L12.9331632,47.3798272 Z M5.62245315,44.3780339 C5.62245315,46.3748917 7.01919421,47.5270114 8.55466455,47.5270114 C10.1023486,47.5270114 11.4990897,46.3748917 11.4990897,44.3780339 C11.4990897,42.3686115 10.1023486,41.217165 8.55466455,41.217165 C7.01919421,41.217165 5.62245315,42.3686115 5.62245315,44.3780339 L5.62245315,44.3780339 Z M10.0143177,44.3780339 C10.0143177,45.5788409 9.46055287,46.3748917 8.55466455,46.3748917 C7.64808488,46.3748917 7.10745553,45.5788409 7.10745553,44.3780339 C7.10745553,43.1653354 7.64808488,42.3686115 8.55466455,42.3686115 C9.46055287,42.3686115 10.0143177,43.1653354 10.0143177,44.3780339 L10.0143177,44.3780339 Z M0.111306044,44.3780339 C0.111306044,42.3686115 1.55851507,41.217165 3.20667413,41.217165 C3.99964328,41.217165 4.56585229,41.5113089 5.01914212,41.8909362 L4.31420384,42.8099395 C3.98673823,42.5283602 3.67240812,42.3686115 3.28272174,42.3686115 C2.2885721,42.3686115 1.59607798,43.1653354 1.59607798,44.3780339 C1.59607798,45.5788409 2.27566706,46.3748917 3.24446749,46.3748917 C3.72287608,46.3748917 4.16303042,46.1426728 4.51584523,45.8604203 L5.10740344,46.7915394 C4.52828938,47.282228 3.7980019,47.5270114 3.09398541,47.5270114 C1.40734164,47.5270114 0.111306044,46.3748917 0.111306044,44.3780339 L0.111306044,44.3780339 Z" id="Fill-3" fill="#93A4AC"></path>
        </g>
    </g>
</svg>